<svg xmlns="http://www.w3.org/2000/svg" shape-rendering="geometricPrecision" text-rendering="geometricPrecision" image-rendering="optimizeQuality" fill-rule="evenodd" clip-rule="evenodd" viewBox="0 0 364 512.19"><path d="m333.45 449.5-214.37 62.49c-1.78.51-3.62 0-4.88-1.18L17.97 420.2a5.081 5.081 0 0 1-1.6-3.64L.01 62.6c-.07-1.61.61-3.07 1.74-4.05L51.3 15.7c.87-.76 1.93-1.16 3-1.23L279.23.01a5.08 5.08 0 0 1 5.37 4.66l4.35 54.1c.13 1.67-.56 3.21-1.73 4.23l-29.37 28.69 37.2 167.98 66.22 36.7.11.06.04.02.04.02.06.04h.01l.08.05.02.01.05.04.08.05.07.05.14.1.05.04.02.01.07.05.01.02.05.04.04.03.03.02.06.06h.01l.05.06.04.03.03.03.05.05.01.01.06.06.02.02.04.04.04.05.01.01.06.06.01.02.04.05.04.04.02.02.05.07.05.06.04.04.02.03.04.07h.01l.04.07c.36.52.63 1.11.78 1.77.08.37.12.74.12 1.11h.02v61.26a5.08 5.08 0 0 1-3.61 4.86l-22.85 8.42v69.13c0 2.47-1.76 4.52-4.09 4.98zM176.82 307.86c5.55 2.12 9.1 5.36 9.1 8.99 0 6.4-11.04 11.6-24.65 11.6s-24.64-5.2-24.64-11.6c0-3.85 4-7.26 10.14-9.37-4.24-2.25-8.01-5.32-10.9-9.24-3.61-4.9-5.81-10.98-5.81-18.24 0-5.41 1.64-10.82 4.48-15.58l-36.71 6.64c-2.72.49-5.33-1.3-5.86-4.01l-.01.01L65.2 132.57a5.08 5.08 0 0 1 4.01-5.95l162.23-18.75a5.077 5.077 0 0 1 5.6 4.34l25.21 123.84a5.055 5.055 0 0 1-3.95 5.97l-76.89 13.92c.72.61 1.42 1.25 2.09 1.92 5.92 5.92 9.61 14.07 9.61 22.14 0 7.15-2.11 13.12-5.61 17.97-2.83 3.92-6.5 6.98-10.63 9.25l-.05.64zm-28.61-56.19c4.04-2.02 8.57-3.2 13.38-3.2 1.1 0 2.19.06 3.26.18l86.45-15.64-23.32-114.53-151.75 17.53 24.71 124.21 47.27-8.55zm-6.35 164.24 191.28-49.71 20.7-7.62v-51.4l-212.89 47.89.91 60.84zm185.52-37.75L139.04 427.1c-.33.15-.68.27-1.03.35l-2.5.57-.22.05-8.68 1.96v69.22l200.77-58.52v-62.57zM116.46 499.02v-73.03c.01-2.32 1.61-4.42 3.96-4.95l11.36-2.56-.97-64.7-57.45-44.44c-1-.76-1.63-1.83-1.87-2.97l-37.56-179.8c-.27-1.3-.01-2.59.62-3.65l23.3-42.78-7.11-50.57-40.5 35.03L26.4 414.22l90.06 84.8zM67.31 74.59l211.13-19.87-3.55-44.27-214.66 13.8 7.08 50.34zm202.66-8.91L66.84 84.8l-22.61 41.51 36.8 176.17 55.78 43.14 208.02-46.79-56.69-31.41a5.067 5.067 0 0 1-2.48-3.33L247.41 91.36a5.053 5.053 0 0 1 1.36-4.96l21.2-20.72zm-14.92 201.21c8.4 0 15.22 3.21 15.22 7.16 0 3.96-6.82 7.16-15.22 7.16s-15.22-3.2-15.22-7.16c0-3.95 6.82-7.16 15.22-7.16zm-36.51 7.8c8.41 0 15.22 3.21 15.22 7.16s-6.81 7.16-15.22 7.16c-8.4 0-15.21-3.21-15.21-7.16s6.81-7.16 15.21-7.16zm-24.91 189.69-.3-38.76-30.42 8v38.4l30.72-7.64zM184.51 454l-.05-13.7-3.46 1.03v14.38l3.51-1.71zm-8.96 2.48-.05-13.69-3.47 1.02v14.38l3.52-1.71zm116.11-171.97c8.41 0 15.22 3.21 15.22 7.17 0 3.95-6.81 7.16-15.22 7.16-8.4 0-15.21-3.21-15.21-7.16 0-3.96 6.81-7.17 15.21-7.17zm-34.36 8.65c8.4 0 15.22 3.21 15.22 7.16s-6.82 7.16-15.22 7.16-15.22-3.21-15.22-7.16 6.82-7.16 15.22-7.16zm-36.5 7.8c8.4 0 15.22 3.21 15.22 7.16s-6.82 7.16-15.22 7.16c-8.41 0-15.22-3.21-15.22-7.16s6.81-7.16 15.22-7.16zm-59.21-43.66c12.54 0 22.7 11.6 22.7 22.7s-6.77 17.91-15.28 21.19c-1.42 5.08-1.35 12.9-.03 17.12h-15.09c1.96-4.39 2.49-12.18.74-16.94-8.75-3.16-15.74-10.18-15.74-21.37 0-11.19 10.16-22.7 22.7-22.7z"/></svg>